# xmcd CD database file
#
# Track frame offsets:
#	150
#	17487
#	32142
#	42635
#	57570
#	68147
#	79247
#	91405
#	105937
#	119257
#	129337
#	139575
#	149520
#	164105
#	175055
#	186225
#	197557
#	207612
#	221815
#	233737
#
# Disc length: 3265 seconds
#
# Revision: 2
# Processed by: cddbd v1.5.2PL0 Copyright (c) Steve Scherf et al.
# Submitted via: CDex 1.70beta2
#
DISCID=2c0cbf14
DTITLE=Willie Nelson - The Essential Willie Nelson
DYEAR=1995
DGENRE=Country
TTITLE0=Me And Paul
TTITLE1=Yesterday's Wine
TTITLE2=December Day
TTITLE3=Blody Mary Morning
TTITLE4=Healing Hands Of Time
TTITLE5=Darkness On The Face Of The Earth
TTITLE6=Funny How Time Slips Away
TTITLE7=Family Bible
TTITLE8=My Own Peculiar Way
TTITLE9=Mr. Record Man
TTITLE10=I Gotta Get Drunk
TTITLE11=Hello Walls
TTITLE12=Sweet Memories
TTITLE13=Night Life
TTITLE14=Waltz Across Texas
TTITLE15=The Party's Over
TTITLE16=Some Other World
TTITLE17=Goin' Home
TTITLE18=Once More With Feeling
TTITLE19=Phases, Stages, Circles, Cycles and Scenes
EXTD=YEAR: 1995
EXTT0=
EXTT1=
EXTT2=
EXTT3=
EXTT4=
EXTT5=
EXTT6=
EXTT7=
EXTT8=
EXTT9=
EXTT10=
EXTT11=
EXTT12=
EXTT13=
EXTT14=
EXTT15=
EXTT16=
EXTT17=
EXTT18=
EXTT19=
PLAYORDER=
